<mxfile host="app.diagrams.net" modified="2022-06-12T11:28:27.798Z" agent="5.0 (Windows NT 10.0; Win64; x64) AppleWebKit/537.36 (KHTML, like Gecko) Chrome/102.0.5005.63 Safari/537.36 Edg/102.0.1245.39" etag="GeFM8kNeVAElIu1JC1fF" version="19.0.3" type="github">
  <diagram id="SWjEZtNgIwxdt2I8M24f" name="Page-1">
    <mxGraphModel dx="1422" dy="772" grid="0" gridSize="10" guides="1" tooltips="1" connect="1" arrows="1" fold="1" page="1" pageScale="1" pageWidth="827" pageHeight="1169" math="0" shadow="0">
      <root>
        <mxCell id="0" />
        <mxCell id="1" parent="0" />
        <mxCell id="mQEKwj_YVWo846zswgu5-3" value="" style="edgeStyle=orthogonalEdgeStyle;rounded=0;orthogonalLoop=1;jettySize=auto;html=1;" edge="1" parent="1" source="mQEKwj_YVWo846zswgu5-1" target="mQEKwj_YVWo846zswgu5-4">
          <mxGeometry relative="1" as="geometry">
            <mxPoint x="384" y="289" as="targetPoint" />
          </mxGeometry>
        </mxCell>
        <mxCell id="mQEKwj_YVWo846zswgu5-1" value="开始" style="rounded=1;whiteSpace=wrap;html=1;" vertex="1" parent="1">
          <mxGeometry x="324" y="166" width="120" height="43" as="geometry" />
        </mxCell>
        <mxCell id="mQEKwj_YVWo846zswgu5-5" style="edgeStyle=orthogonalEdgeStyle;rounded=0;orthogonalLoop=1;jettySize=auto;html=1;" edge="1" parent="1" source="mQEKwj_YVWo846zswgu5-4" target="mQEKwj_YVWo846zswgu5-12">
          <mxGeometry relative="1" as="geometry">
            <mxPoint x="509" y="225" as="targetPoint" />
          </mxGeometry>
        </mxCell>
        <mxCell id="mQEKwj_YVWo846zswgu5-10" style="edgeStyle=orthogonalEdgeStyle;rounded=0;orthogonalLoop=1;jettySize=auto;html=1;entryX=0;entryY=0.5;entryDx=0;entryDy=0;" edge="1" parent="1" source="mQEKwj_YVWo846zswgu5-4" target="mQEKwj_YVWo846zswgu5-13">
          <mxGeometry relative="1" as="geometry">
            <mxPoint x="509" y="272" as="targetPoint" />
          </mxGeometry>
        </mxCell>
        <mxCell id="mQEKwj_YVWo846zswgu5-11" style="edgeStyle=orthogonalEdgeStyle;rounded=0;orthogonalLoop=1;jettySize=auto;html=1;entryX=0;entryY=0.5;entryDx=0;entryDy=0;" edge="1" parent="1" source="mQEKwj_YVWo846zswgu5-4" target="mQEKwj_YVWo846zswgu5-9">
          <mxGeometry relative="1" as="geometry" />
        </mxCell>
        <mxCell id="mQEKwj_YVWo846zswgu5-15" value="" style="edgeStyle=orthogonalEdgeStyle;rounded=0;orthogonalLoop=1;jettySize=auto;html=1;" edge="1" parent="1" source="mQEKwj_YVWo846zswgu5-4" target="mQEKwj_YVWo846zswgu5-14">
          <mxGeometry relative="1" as="geometry" />
        </mxCell>
        <mxCell id="mQEKwj_YVWo846zswgu5-17" value="" style="edgeStyle=orthogonalEdgeStyle;rounded=0;orthogonalLoop=1;jettySize=auto;html=1;" edge="1" parent="1" source="mQEKwj_YVWo846zswgu5-4" target="mQEKwj_YVWo846zswgu5-16">
          <mxGeometry relative="1" as="geometry" />
        </mxCell>
        <mxCell id="mQEKwj_YVWo846zswgu5-4" value="我的报名" style="rounded=0;whiteSpace=wrap;html=1;" vertex="1" parent="1">
          <mxGeometry x="324" y="231" width="120" height="60" as="geometry" />
        </mxCell>
        <mxCell id="mQEKwj_YVWo846zswgu5-34" style="edgeStyle=orthogonalEdgeStyle;rounded=0;orthogonalLoop=1;jettySize=auto;html=1;entryX=1;entryY=0.5;entryDx=0;entryDy=0;" edge="1" parent="1" source="mQEKwj_YVWo846zswgu5-9" target="mQEKwj_YVWo846zswgu5-28">
          <mxGeometry relative="1" as="geometry">
            <Array as="points">
              <mxPoint x="575" y="564" />
              <mxPoint x="384" y="564" />
              <mxPoint x="384" y="644" />
            </Array>
          </mxGeometry>
        </mxCell>
        <mxCell id="mQEKwj_YVWo846zswgu5-9" value="删除" style="rounded=0;whiteSpace=wrap;html=1;" vertex="1" parent="1">
          <mxGeometry x="528" y="291" width="93" height="42" as="geometry" />
        </mxCell>
        <mxCell id="mQEKwj_YVWo846zswgu5-36" style="edgeStyle=orthogonalEdgeStyle;rounded=0;orthogonalLoop=1;jettySize=auto;html=1;exitX=1;exitY=0.5;exitDx=0;exitDy=0;entryX=0.5;entryY=0;entryDx=0;entryDy=0;" edge="1" parent="1" source="mQEKwj_YVWo846zswgu5-12" target="mQEKwj_YVWo846zswgu5-28">
          <mxGeometry relative="1" as="geometry">
            <Array as="points">
              <mxPoint x="663" y="214" />
              <mxPoint x="663" y="606" />
              <mxPoint x="384" y="606" />
            </Array>
          </mxGeometry>
        </mxCell>
        <mxCell id="mQEKwj_YVWo846zswgu5-12" value="报名信息查看" style="rounded=0;whiteSpace=wrap;html=1;" vertex="1" parent="1">
          <mxGeometry x="528" y="193" width="93" height="42" as="geometry" />
        </mxCell>
        <mxCell id="mQEKwj_YVWo846zswgu5-35" style="edgeStyle=orthogonalEdgeStyle;rounded=0;orthogonalLoop=1;jettySize=auto;html=1;entryX=0.5;entryY=0;entryDx=0;entryDy=0;" edge="1" parent="1" source="mQEKwj_YVWo846zswgu5-13" target="mQEKwj_YVWo846zswgu5-28">
          <mxGeometry relative="1" as="geometry">
            <Array as="points">
              <mxPoint x="642" y="261" />
              <mxPoint x="642" y="580" />
              <mxPoint x="384" y="580" />
            </Array>
          </mxGeometry>
        </mxCell>
        <mxCell id="mQEKwj_YVWo846zswgu5-13" value="缴费" style="rounded=0;whiteSpace=wrap;html=1;" vertex="1" parent="1">
          <mxGeometry x="528" y="240" width="93" height="42" as="geometry" />
        </mxCell>
        <mxCell id="mQEKwj_YVWo846zswgu5-30" value="" style="edgeStyle=orthogonalEdgeStyle;rounded=0;orthogonalLoop=1;jettySize=auto;html=1;" edge="1" parent="1" source="mQEKwj_YVWo846zswgu5-14" target="mQEKwj_YVWo846zswgu5-29">
          <mxGeometry relative="1" as="geometry" />
        </mxCell>
        <mxCell id="mQEKwj_YVWo846zswgu5-14" value="查询报名信息" style="whiteSpace=wrap;html=1;rounded=0;" vertex="1" parent="1">
          <mxGeometry x="324" y="317" width="120" height="60" as="geometry" />
        </mxCell>
        <mxCell id="mQEKwj_YVWo846zswgu5-19" value="" style="edgeStyle=orthogonalEdgeStyle;rounded=0;orthogonalLoop=1;jettySize=auto;html=1;" edge="1" parent="1" source="mQEKwj_YVWo846zswgu5-16" target="mQEKwj_YVWo846zswgu5-18">
          <mxGeometry relative="1" as="geometry" />
        </mxCell>
        <mxCell id="mQEKwj_YVWo846zswgu5-16" value="添加报名信息" style="whiteSpace=wrap;html=1;rounded=0;" vertex="1" parent="1">
          <mxGeometry x="148" y="231" width="120" height="60" as="geometry" />
        </mxCell>
        <mxCell id="mQEKwj_YVWo846zswgu5-21" value="" style="edgeStyle=orthogonalEdgeStyle;rounded=0;orthogonalLoop=1;jettySize=auto;html=1;" edge="1" parent="1" source="mQEKwj_YVWo846zswgu5-18" target="mQEKwj_YVWo846zswgu5-20">
          <mxGeometry relative="1" as="geometry" />
        </mxCell>
        <mxCell id="mQEKwj_YVWo846zswgu5-18" value="输入报名信息&amp;nbsp;" style="whiteSpace=wrap;html=1;rounded=0;" vertex="1" parent="1">
          <mxGeometry x="148" y="317" width="120" height="60" as="geometry" />
        </mxCell>
        <mxCell id="mQEKwj_YVWo846zswgu5-23" style="edgeStyle=orthogonalEdgeStyle;rounded=0;orthogonalLoop=1;jettySize=auto;html=1;entryX=1;entryY=0.25;entryDx=0;entryDy=0;" edge="1" parent="1" source="mQEKwj_YVWo846zswgu5-20" target="mQEKwj_YVWo846zswgu5-18">
          <mxGeometry relative="1" as="geometry">
            <Array as="points">
              <mxPoint x="288" y="455" />
              <mxPoint x="288" y="332" />
            </Array>
          </mxGeometry>
        </mxCell>
        <mxCell id="mQEKwj_YVWo846zswgu5-24" value="否" style="edgeLabel;html=1;align=center;verticalAlign=middle;resizable=0;points=[];" vertex="1" connectable="0" parent="mQEKwj_YVWo846zswgu5-23">
          <mxGeometry x="0.1323" y="-1" relative="1" as="geometry">
            <mxPoint as="offset" />
          </mxGeometry>
        </mxCell>
        <mxCell id="mQEKwj_YVWo846zswgu5-26" value="是" style="edgeStyle=orthogonalEdgeStyle;rounded=0;orthogonalLoop=1;jettySize=auto;html=1;" edge="1" parent="1" source="mQEKwj_YVWo846zswgu5-20" target="mQEKwj_YVWo846zswgu5-25">
          <mxGeometry relative="1" as="geometry" />
        </mxCell>
        <mxCell id="mQEKwj_YVWo846zswgu5-20" value="验证信息合法性" style="rhombus;whiteSpace=wrap;html=1;rounded=0;" vertex="1" parent="1">
          <mxGeometry x="152.5" y="421" width="111" height="67" as="geometry" />
        </mxCell>
        <mxCell id="mQEKwj_YVWo846zswgu5-27" style="edgeStyle=orthogonalEdgeStyle;rounded=0;orthogonalLoop=1;jettySize=auto;html=1;" edge="1" parent="1" source="mQEKwj_YVWo846zswgu5-25" target="mQEKwj_YVWo846zswgu5-28">
          <mxGeometry relative="1" as="geometry">
            <mxPoint x="208" y="695" as="targetPoint" />
          </mxGeometry>
        </mxCell>
        <mxCell id="mQEKwj_YVWo846zswgu5-25" value="保存报名信息" style="whiteSpace=wrap;html=1;rounded=0;" vertex="1" parent="1">
          <mxGeometry x="148" y="533" width="120" height="60" as="geometry" />
        </mxCell>
        <mxCell id="mQEKwj_YVWo846zswgu5-28" value="结束" style="rounded=1;whiteSpace=wrap;html=1;" vertex="1" parent="1">
          <mxGeometry x="324" y="621" width="120" height="45" as="geometry" />
        </mxCell>
        <mxCell id="mQEKwj_YVWo846zswgu5-32" value="" style="edgeStyle=orthogonalEdgeStyle;rounded=0;orthogonalLoop=1;jettySize=auto;html=1;" edge="1" parent="1" source="mQEKwj_YVWo846zswgu5-29" target="mQEKwj_YVWo846zswgu5-31">
          <mxGeometry relative="1" as="geometry" />
        </mxCell>
        <mxCell id="mQEKwj_YVWo846zswgu5-29" value="输入查询关键字" style="whiteSpace=wrap;html=1;rounded=0;" vertex="1" parent="1">
          <mxGeometry x="324" y="404" width="120" height="60" as="geometry" />
        </mxCell>
        <mxCell id="mQEKwj_YVWo846zswgu5-33" style="edgeStyle=orthogonalEdgeStyle;rounded=0;orthogonalLoop=1;jettySize=auto;html=1;" edge="1" parent="1" source="mQEKwj_YVWo846zswgu5-31" target="mQEKwj_YVWo846zswgu5-28">
          <mxGeometry relative="1" as="geometry" />
        </mxCell>
        <mxCell id="mQEKwj_YVWo846zswgu5-31" value="返回查询结果" style="whiteSpace=wrap;html=1;rounded=0;" vertex="1" parent="1">
          <mxGeometry x="324" y="488" width="120" height="60" as="geometry" />
        </mxCell>
      </root>
    </mxGraphModel>
  </diagram>
</mxfile>
